<svg xmlns="http://www.w3.org/2000/svg" xmlns:xlink="http://www.w3.org/1999/xlink" viewBox="0 0 482 120.751"><defs><style>.a{fill:none;}.b{clip-path:url(#a);}.c{fill:#fff;}</style><clipPath id="a"><rect class="a" width="482" height="120.751"/></clipPath></defs><g class="b"><g transform="translate(-747 -1446)"><path class="c" d="M166.392.1C131.032.1,104.7,27.435,104.7,60.413v.5c0,32.852,26.081,59.686,61.19,59.686,35.611,0,61.943-27.335,61.943-60.187v-.5C227.833,27.059,201.877.1,166.392.1Zm34.984,60.814c0,19.937-13.542,36.489-34.984,36.489-20.564,0-35.235-16.8-35.235-36.99v-.5c0-20.188,13.542-36.739,34.733-36.739,20.815,0,35.36,16.8,35.36,37.241v.5Z" transform="translate(773.583 1446.025)"/><path class="c" d="M303.482,1c-7.022,0-10.533,4.639-12.414,9.153l-30.219,76.99L231.132,10.655C228.875,5.138,225.113,1,217.966,1,210.693,1,204.8,7.144,204.8,13.664a20.728,20.728,0,0,0,1.5,6.52L244.8,108.334c3.009,7.022,7.9,11.536,15.047,11.536H261.1c7.273,0,12.037-4.765,15.047-11.536l38.495-88.4a16.531,16.531,0,0,0,1.5-6.395C316.4,6.392,310.629,1,303.482,1Z" transform="translate(798.999 1446.254)"/><path class="c" d="M406.946,57.027C406.946,30.319,388.765.1,352.026.1,319.048.1,295.6,27.184,295.6,60.287v.376c0,35.611,25.83,59.937,59.309,59.937,17.931,0,31.1-5.893,41.5-15.3a11.357,11.357,0,0,0,3.511-8.025,10.389,10.389,0,0,0-10.533-10.658A10.109,10.109,0,0,0,382.621,89a41.282,41.282,0,0,1-27.335,10.031c-17.053,0-30.344-10.533-33.228-29.341h72.35A12.369,12.369,0,0,0,406.946,57.027Zm-85.015-4.89c2.383-17.931,13.793-30.344,29.968-30.344,17.429,0,27.586,13.417,29.341,30.344Z" transform="translate(822.053 1446.025)"/><path class="c" d="M118.87,71.974a29.914,29.914,0,0,1-1.881,10.407,62.161,62.161,0,0,1-5.141,10.533c-8.276,13.668-24.2,27.837-51.661,27.837-20.689,0-36.865-9.4-47.147-22.445A60.7,60.7,0,0,1,0,60.313,60.108,60.108,0,0,1,13.041,22.445C23.323,9.4,39.5,0,60.187,0,87.648,0,103.7,14.169,112.1,27.837a62.159,62.159,0,0,1,5.141,10.533,29.4,29.4,0,0,1,1.881,10.407h0a2.838,2.838,0,0,1-2.884,2.884H103.823a14.571,14.571,0,0,1-6.144-1.254,11.274,11.274,0,0,1-6.27-6.646C87.773,35.485,78.494,23.2,60.187,23.2,40,23.2,26.708,41,26.708,59.937v.878c0,18.809,13.291,36.739,33.479,36.739,18.307,0,27.586-12.288,31.222-20.564a12.037,12.037,0,0,1,6.27-6.646,14.571,14.571,0,0,1,6.144-1.254h12.163a2.917,2.917,0,0,1,2.884,2.884Z" transform="translate(747 1446)"/></g></g></svg>