<svg xmlns="http://www.w3.org/2000/svg" viewBox="0 0 102.442 26"><defs><style>.a{fill:#00cdb9;}</style></defs><path class="a" d="M27.889,12.959v-.1A12.83,12.83,0,0,1,41.009.032,12.715,12.715,0,0,1,54.065,12.777v.086A13.089,13.089,0,0,1,41.025,26h-.05A13.088,13.088,0,0,1,27.889,12.959Zm5.635-.182v.086a7.561,7.561,0,0,0,7.485,7.86c4.555,0,7.431-3.486,7.431-7.763l-.042-.1a7.583,7.583,0,0,0-7.485-7.9C36.4,4.961,33.523,8.5,33.523,12.777Zm48.785,9.286a12.255,12.255,0,0,1-3.532-9.115v-.086c0-7.068,4.983-12.831,12-12.831,7.806,0,11.666,6.415,11.666,12.093a2.629,2.629,0,0,1-2.651,2.749H84.412A6.833,6.833,0,0,0,91.469,21.1a8.869,8.869,0,0,0,5.818-2.139,2.064,2.064,0,0,1,1.433-.513,2.213,2.213,0,0,1,2.235,2.278,2.4,2.4,0,0,1-.749,1.71,12.573,12.573,0,0,1-8.822,3.261q-.183.005-.364.005A12.255,12.255,0,0,1,82.308,22.063Zm2.05-11.008h12.65c-.374-3.582-2.513-6.415-6.234-6.415C87.288,4.641,84.872,7.25,84.358,11.056ZM12.79,25.673A12.437,12.437,0,0,1,2.781,20.9a13.078,13.078,0,0,1,0-16.126A12.438,12.438,0,0,1,12.79.01,12.3,12.3,0,0,1,23.8,5.923a13.644,13.644,0,0,1,1.069,2.235,6.191,6.191,0,0,1,.385,2.2.609.609,0,0,1-.609.609h-2.6a3.079,3.079,0,0,1-1.316-.267A2.526,2.526,0,0,1,19.4,9.3a7.035,7.035,0,0,0-6.64-4.362c-4.277,0-7.111,3.8-7.111,7.8v.192c0,4,2.834,7.8,7.111,7.8a7.057,7.057,0,0,0,6.64-4.363,2.5,2.5,0,0,1,1.347-1.4,3.083,3.083,0,0,1,1.316-.268h2.577a.652.652,0,0,1,.663.609l-.043.022a6.216,6.216,0,0,1-.385,2.2A13.761,13.761,0,0,1,23.8,19.76a12.3,12.3,0,0,1-10.515,5.923C13.123,25.683,12.957,25.68,12.79,25.673Zm53.476-.117a3.488,3.488,0,0,1-3.209-2.46L54.877,4.362a4.4,4.4,0,0,1-.331-1.4,2.855,2.855,0,0,1,5.582-.652l6.319,16.276,6.416-16.36A2.8,2.8,0,0,1,75.514.267a2.684,2.684,0,0,1,2.738,2.695,3.364,3.364,0,0,1-.32,1.347L69.752,23.1a3.572,3.572,0,0,1-3.209,2.46Z" transform="translate(0 0)"/></svg>