<svg xmlns="http://www.w3.org/2000/svg" viewBox="3569 -132 127.734 32"><defs><style>.a{fill:#00b19a;}</style></defs><g transform="translate(3417 -153)"><path class="a" d="M121.049.1A16.01,16.01,0,0,0,104.7,16.083v.133a15.821,15.821,0,0,0,16.216,15.817,16.019,16.019,0,0,0,16.415-15.95V15.95C137.331,7.244,130.453.1,121.049.1Zm9.271,16.116c0,5.283-3.589,9.67-9.271,9.67-5.45,0-9.337-4.453-9.337-9.8V15.95c0-5.35,3.589-9.736,9.2-9.736,5.516,0,9.371,4.453,9.371,9.869v.133Z" transform="translate(82.091 20.933)"/><path class="a" d="M230.952,1a3.463,3.463,0,0,0-3.29,2.426l-8.008,20.4-7.875-20.27A3.57,3.57,0,0,0,208.289,1,3.509,3.509,0,0,0,204.8,4.356a5.493,5.493,0,0,0,.4,1.728l10.2,23.36c.8,1.861,2.093,3.057,3.988,3.057h.332c1.927,0,3.19-1.263,3.988-3.057l10.2-23.427a4.381,4.381,0,0,0,.4-1.695A3.239,3.239,0,0,0,230.952,1Z" transform="translate(15.254 20.332)"/><path class="a" d="M325.108,15.186C325.108,8.108,320.29.1,310.553.1,301.814.1,295.6,7.278,295.6,16.05v.1c0,9.437,6.845,15.884,15.718,15.884a15.636,15.636,0,0,0,11-4.054,3.01,3.01,0,0,0,.93-2.127,2.753,2.753,0,0,0-2.791-2.825,2.679,2.679,0,0,0-1.794.631,10.94,10.94,0,0,1-7.244,2.658c-4.519,0-8.042-2.791-8.806-7.776h19.173A3.278,3.278,0,0,0,325.108,15.186Zm-22.53-1.3c.631-4.752,3.655-8.042,7.942-8.042,4.619,0,7.31,3.556,7.776,8.042Z" transform="translate(-45.374 20.933)"/><path class="a" d="M31.5,19.074a7.927,7.927,0,0,1-.5,2.758,16.473,16.473,0,0,1-1.362,2.791C27.448,28.245,23.227,32,15.95,32A15.592,15.592,0,0,1,3.456,26.052,16.087,16.087,0,0,1,0,15.983,15.929,15.929,0,0,1,3.456,5.948,15.592,15.592,0,0,1,15.95,0c7.277,0,11.531,3.755,13.757,7.377a16.473,16.473,0,0,1,1.362,2.791,7.792,7.792,0,0,1,.5,2.758h0a.752.752,0,0,1-.764.764h-3.29a3.861,3.861,0,0,1-1.628-.332A2.988,2.988,0,0,1,24.224,11.6a8.823,8.823,0,0,0-8.274-5.45c-5.35,0-8.872,4.719-8.872,9.736v.233c0,4.984,3.522,9.736,8.872,9.736a8.823,8.823,0,0,0,8.274-5.45,3.19,3.19,0,0,1,1.661-1.761,3.861,3.861,0,0,1,1.628-.332h3.223a.773.773,0,0,1,.764.764Z" transform="translate(152 21)"/></g></svg>